HIERARCHY
ROOT Hips
{
  OFFSET -8.84179 20.0128 0.897337
  CHANNELS 6 Xposition Yposition Zposition Zrotation Xrotation Yrotation
  JOINT Bip01_Pelvis
  {
    OFFSET 0 0 0
    CHANNELS 6 Xposition Yposition Zposition Zrotation Xrotation Yrotation
    JOINT BN_Tail_01
    {
      OFFSET -1.24087 -0.718302 0
      CHANNELS 6 Xposition Yposition Zposition Zrotation Xrotation Yrotation
      JOINT BN_Tail_02
      {
        OFFSET 6.82381 0 0
        CHANNELS 6 Xposition Yposition Zposition Zrotation Xrotation Yrotation
        JOINT BN_Tail_03
        {
          OFFSET 8.76082 0 0
          CHANNELS 6 Xposition Yposition Zposition Zrotation Xrotation Yrotation
          JOINT BN_Tail_04
          {
            OFFSET 7.66999 0 0
            CHANNELS 6 Xposition Yposition Zposition Zrotation Xrotation Yrotation
            End Site
            {
              OFFSET 0 0 0
            }
          }
        }
      }
    }
    JOINT Bip01_Spine
    {
      OFFSET 1.33812 0.096014 0.0297562
      CHANNELS 6 Xposition Yposition Zposition Zrotation Xrotation Yrotation
      JOINT Bip01_R_Thigh
      {
        OFFSET -1.30135 0.103306 -2.49297
        CHANNELS 6 Xposition Yposition Zposition Zrotation Xrotation Yrotation
        JOINT Bip01_R_Calf
        {
          OFFSET 8.39601 0 0
          CHANNELS 6 Xposition Yposition Zposition Zrotation Xrotation Yrotation
          JOINT Bip01_R_HorseLink
          {
            OFFSET 9.35807 0 0
            CHANNELS 6 Xposition Yposition Zposition Zrotation Xrotation Yrotation
            JOINT Bip01_R_Foot
            {
              OFFSET 4.27819 0 0
              CHANNELS 6 Xposition Yposition Zposition Zrotation Xrotation Yrotation
              JOINT Bip01_R_Toe0
              {
                OFFSET 1.32445 2.68719 0
                CHANNELS 6 Xposition Yposition Zposition Zrotation Xrotation Yrotation
                JOINT Bip01_R_Toe0Nub
                {
                  OFFSET 0.282271 0 0
                  CHANNELS 6 Xposition Yposition Zposition Zrotation Xrotation Yrotation
                  End Site
                  {
                    OFFSET 0 0 0
                  }
                }
              }
            }
          }
        }
      }
      JOINT Bip01_L_Thigh
      {
        OFFSET -1.37978 -0.0398788 2.39225
        CHANNELS 6 Xposition Yposition Zposition Zrotation Xrotation Yrotation
        JOINT Bip01_L_Calf
        {
          OFFSET 8.39601 0 0
          CHANNELS 6 Xposition Yposition Zposition Zrotation Xrotation Yrotation
          JOINT Bip01_L_HorseLink
          {
            OFFSET 9.35808 0 0
            CHANNELS 6 Xposition Yposition Zposition Zrotation Xrotation Yrotation
            JOINT Bip01_L_Foot
            {
              OFFSET 4.27819 0 0
              CHANNELS 6 Xposition Yposition Zposition Zrotation Xrotation Yrotation
              JOINT Bip01_L_Toe0
              {
                OFFSET 1.32445 2.68719 0
                CHANNELS 6 Xposition Yposition Zposition Zrotation Xrotation Yrotation
                JOINT Bip01_L_Toe0Nub
                {
                  OFFSET 0.282267 0 0
                  CHANNELS 6 Xposition Yposition Zposition Zrotation Xrotation Yrotation
                  End Site
                  {
                    OFFSET 0 0 0
                  }
                }
              }
            }
          }
        }
      }
      JOINT Bip01_Spine1
      {
        OFFSET 4.77812 -0.00598526 -2.03848e-005
        CHANNELS 6 Xposition Yposition Zposition Zrotation Xrotation Yrotation
        JOINT Bip01_Spine2
        {
          OFFSET 7.52904 -0.00557518 -8.38637e-005
          CHANNELS 6 Xposition Yposition Zposition Zrotation Xrotation Yrotation
          JOINT Bip01_Neck
          {
            OFFSET 8.17986 0.436998 0.000127075
            CHANNELS 6 Xposition Yposition Zposition Zrotation Xrotation Yrotation
            JOINT Bip01_R_Clavicle
            {
              OFFSET -2.1244 -3.91239 -2.44847
              CHANNELS 6 Xposition Yposition Zposition Zrotation Xrotation Yrotation
              JOINT Bip01_R_UpperArm
              {
                OFFSET 6.62478 0 0
                CHANNELS 6 Xposition Yposition Zposition Zrotation Xrotation Yrotation
                JOINT Bip01_R_Forearm
                {
                  OFFSET 7.46098 0 0
                  CHANNELS 6 Xposition Yposition Zposition Zrotation Xrotation Yrotation
                  JOINT Bip01_R_Hand
                  {
                    OFFSET 7.80543 0 0
                    CHANNELS 6 Xposition Yposition Zposition Zrotation Xrotation Yrotation
                    JOINT Bip01_R_Finger0
                    {
                      OFFSET 2.2294 0.674378 0.135623
                      CHANNELS 6 Xposition Yposition Zposition Zrotation Xrotation Yrotation
                      JOINT Bip01_R_Finger0Nub
                      {
                        OFFSET 3.57154 0 0
                        CHANNELS 6 Xposition Yposition Zposition Zrotation Xrotation Yrotation
                        End Site
                        {
                          OFFSET 0 0 0
                        }
                      }
                    }
                  }
                }
              }
            }
            JOINT Bip01_L_Clavicle
            {
              OFFSET -2.28998 -4.09919 1.94072
              CHANNELS 6 Xposition Yposition Zposition Zrotation Xrotation Yrotation
              JOINT Bip01_L_UpperArm
              {
                OFFSET 6.62478 0 0
                CHANNELS 6 Xposition Yposition Zposition Zrotation Xrotation Yrotation
                JOINT Bip01_L_Forearm
                {
                  OFFSET 7.46098 0 0
                  CHANNELS 6 Xposition Yposition Zposition Zrotation Xrotation Yrotation
                  JOINT Bip01_L_Hand
                  {
                    OFFSET 7.80543 0 0
                    CHANNELS 6 Xposition Yposition Zposition Zrotation Xrotation Yrotation
                    JOINT Bip01_L_Finger0
                    {
                      OFFSET 2.2294 0.674378 -0.135623
                      CHANNELS 6 Xposition Yposition Zposition Zrotation Xrotation Yrotation
                      JOINT Bip01_L_Finger0Nub
                      {
                        OFFSET 3.57153 0 0
                        CHANNELS 6 Xposition Yposition Zposition Zrotation Xrotation Yrotation
                        End Site
                        {
                          OFFSET 0 0 0
                        }
                      }
                    }
                  }
                }
              }
            }
            JOINT Bip01_Neck1
            {
              OFFSET 3.78076 -0.00285482 1.52588e-005
              CHANNELS 6 Xposition Yposition Zposition Zrotation Xrotation Yrotation
              JOINT Bip01_Head
              {
                OFFSET 3.62738 0 0
                CHANNELS 6 Xposition Yposition Zposition Zrotation Xrotation Yrotation
                JOINT BN_Beard_L
                {
                  OFFSET 6.36381 2.6665 1.018
                  CHANNELS 6 Xposition Yposition Zposition Zrotation Xrotation Yrotation
                  End Site
                  {
                    OFFSET 0 0 0
                  }
                }
                JOINT BN_Beard_R
                {
                  OFFSET 6.3638 2.6665 -1.01806
                  CHANNELS 6 Xposition Yposition Zposition Zrotation Xrotation Yrotation
                  End Site
                  {
                    OFFSET 0 0 0
                  }
                }
                JOINT BN_Mouth
                {
                  OFFSET 0.165208 0.881832 -2.79663e-005
                  CHANNELS 6 Xposition Yposition Zposition Zrotation Xrotation Yrotation
                  JOINT BN_Thouge_01
                  {
                    OFFSET 4.3022 0.00850105 0
                    CHANNELS 6 Xposition Yposition Zposition Zrotation Xrotation Yrotation
                    JOINT BN_Thouge_02
                    {
                      OFFSET 1.50253 0 0
                      CHANNELS 6 Xposition Yposition Zposition Zrotation Xrotation Yrotation
                      End Site
                      {
                        OFFSET 0 0 0
                      }
                    }
                  }
                }
                JOINT BN_Ear_L
                {
                  OFFSET 1.27954 -1.37165 2.10918
                  CHANNELS 6 Xposition Yposition Zposition Zrotation Xrotation Yrotation
                  End Site
                  {
                    OFFSET 0 0 0
                  }
                }
                JOINT BN_Ear_R
                {
                  OFFSET 1.27953 -1.37164 -2.1093
                  CHANNELS 6 Xposition Yposition Zposition Zrotation Xrotation Yrotation
                  End Site
                  {
                    OFFSET 0 0 0
                  }
                }
                JOINT Bip01_HeadNub
                {
                  OFFSET 7.94507 0 0
                  CHANNELS 6 Xposition Yposition Zposition Zrotation Xrotation Yrotation
                  End Site
                  {
                    OFFSET 0 0 0
                  }
                }
              }
            }
          }
        }
      }
    }
  }
}
MOTION
Frames:	4
Frame Time:	0.0333333
5.84313 14.9783 -0.225985 98.581 -88.0047 -176.541 0 -9.09495e-013 0 -91.2898 -5.68261 -92.5252 -1.24088 -0.718306 2.5183e-006 -19.7932 -4.41766 177.397 6.82381 -1.75859e-013 2.86102e-006 -29.3565 2.97698 13.4049 8.76082 5.24521e-006 2.38419e-006 -52.1308 10.3932 1.25289 7.66998 5.96046e-008 -7.10543e-015 -45.0322 1.74251 -27.1037 1.33942 0.0444269 0.0595427 -10.7523 0.170623 3.1749 -1.35462 -0.108749 -2.49335 -103.601 -10.6303 177.896 8.39601 4.76837e-007 -2.38419e-007 -99.833 -4.61619e-006 -2.47992e-006 9.35807 -1.77636e-015 -6.66134e-016 96.1979 -1.5135e-005 1.82961e-005 4.27819 2.38419e-007 4.44089e-016 -15.8247 3.43758 -0.815016 1.32445 2.68719 -2.41629e-007 86.623 -0.299106 -1.4545 0.282265 -2.40107e-010 1.55431e-015 -4.68444e-009 1.6275e-008 1.00021e-006 -1.31697 -0.11727 2.39445 -99.4742 9.40306 -171.048 8.39601 -1.77636e-015 -2.38419e-007 -103.647 -5.45499e-006 9.05288e-006 9.35807 -5.32907e-015 -2.66454e-015 92.6643 8.81502e-006 -1.10041e-005 4.27819 -1.88738e-015 -2.38419e-007 -24.9421 3.17158 -3.63468 1.32445 2.68719 -2.63928e-007 106.423 -0.114308 0.786501 0.282265 0 -4.44089e-016 -180 -1.99755e-006 -2.20981e-006 4.7801 -0.00552654 1.26809e-005 27.7767 1.73636 0.608607 7.53427 -0.00374699 8.63597e-005 -0.238448 -1.84033 1.81175 8.17902 0.438046 -1.7762e-005 -41.1816 0.0861256 -0.0370972 -0.248727 -4.58593 -2.17214 -139.044 -64.8137 123.227 6.62478 1.77636e-015 0 45.7823 16.687 -105.577 7.46098 -4.76837e-007 -1.19209e-007 -134.314 -1.99613e-008 1.56492e-006 7.80543 -1.77636e-015 2.44249e-015 24.1773 -11.4719 10.831 2.2294 0.674378 0.135621 -44.2388 -5.51117 8.40061 3.57154 -1.19209e-007 1.19209e-007 -180 -1.01373e-005 -9.1076e-006 -0.247405 -4.56107 2.22406 -138.545 75.169 -149.267 6.62478 0 -1.90735e-006 94.9392 -57.435 111.185 7.46098 -3.55272e-015 1.77636e-015 -78.5491 -1.50375e-007 1.0141e-005 7.80543 -2.66454e-015 1.19209e-007 9.66462 5.5224 -2.53755 2.2294 0.674378 -0.135621 -17.0136 2.75742 1.51382 3.57153 -2.66454e-015 -5.96046e-008 -2.72147e-008 1.00268e-005 2.29347e-006 3.78078 -0.00284988 7.59959e-006 -4.44333 -0.650205 -0.746885 3.62738 -7.15256e-007 -1.49012e-008 22.178 0.803615 2.46013 6.36381 2.6665 1.018 73.2358 -2.74149 -94.9955 6.36379 2.6665 -1.01806 -97.1188 4.95698 80.7023 0.165207 0.881838 -2.5393e-005 -152.234 -0.00898743 -179.998 4.30221 0.00850105 1.51596e-010 15.0149 -1.35739e-005 1.38938e-005 1.50253 -3.8147e-006 -1.90958e-014 11.687 -1.44315e-005 1.32253e-005 1.27954 -1.37165 2.10918 -133.268 -55.7014 -38.8239 1.27953 -1.37164 -2.1093 48.372 -56.0744 142.074 7.94507 5.72205e-006 -8.4377e-015 -1.23467e-007 2.10732e-012 -1.72943e-012 
5.22002 14.4468 -0.214348 99.1903 -87.1626 -177.088 0 -9.09467e-013 0 -91.0962 -1.41232 -92.3862 -1.24088 -0.718306 2.5183e-006 -18.304 -4.10031 177.022 6.82381 -1.75859e-013 2.86102e-006 -28.9711 2.75727 12.8068 8.76082 5.24521e-006 2.38419e-006 -52.6092 10.5957 0.630304 7.66998 5.96047e-008 -3.9968e-015 -45.5842 1.55611 -27.7678 1.33942 0.0444269 0.0595427 -7.38685 -0.167586 3.1615 -1.35462 -0.108749 -2.49335 -105.233 -11.5751 177.153 8.39601 4.76837e-007 -2.38419e-007 -105.318 -9.54383e-006 -4.29733e-006 9.35807 0 -4.44089e-016 100.764 3.93992e-006 1.63429e-005 4.27819 2.38419e-007 2.22045e-016 -20.1019 1.25604 -0.821881 1.32445 2.68719 -2.39936e-007 88.1542 -0.149172 -2.19188 0.282265 -2.40106e-010 1.11022e-015 -4.68445e-009 1.6275e-008 1.00021e-006 -1.31697 -0.11727 2.39445 -101.297 9.29662 -168.484 8.39601 -1.77636e-015 -2.38419e-007 -109.546 -4.96376e-006 9.16186e-006 9.35807 -7.10543e-015 -2.66454e-015 92.4603 8.4169e-006 -1.17981e-005 4.27819 3.83027e-015 -2.38419e-007 -22.3105 7.30544 -3.87172 1.32445 2.68719 -2.63591e-007 106.375 0.11251 2.19243 0.282265 1.7486e-015 -1.77636e-015 -180 -1.99755e-006 -1.21966e-006 4.7801 -0.00552654 1.26809e-005 25.6029 1.93104 1.05005 7.53427 -0.00374699 8.63597e-005 6.19788 -1.87304 3.31268 8.17902 0.438046 -1.77603e-005 -46.5034 0.0956419 -0.0266802 -0.248727 -4.58593 -2.17214 -133.729 -64.8074 121.253 6.62478 1.77636e-015 7.10543e-015 38.225 -1.11304 -103.935 7.46098 -4.76837e-007 -1.19209e-007 -133.428 -1.86465e-006 -5.64391e-006 7.80543 0 0 10.4245 -12.5212 12.4611 2.2294 0.674378 0.135621 -52.8864 -6.71344 7.47892 3.57154 -1.19209e-007 1.19209e-007 -180 -1.01373e-005 -9.1076e-006 -0.247405 -4.56107 2.22406 -133.211 75.1772 -151.904 6.62478 -1.77636e-015 -1.90735e-006 100.66 -59.0888 113.818 7.46098 -1.42109e-014 1.77636e-015 -74.3916 -2.79078e-006 1.09208e-005 7.80543 3.55272e-015 1.19209e-007 7.58476 4.79872 -1.48414 2.2294 0.674378 -0.135621 -16.2875 2.66502 1.45605 3.57153 -6.66135e-015 -5.96047e-008 -2.72147e-008 1.00268e-005 2.29347e-006 3.78078 -0.00284988 7.5996e-006 -0.419095 0.251496 -0.42428 3.62738 -7.15256e-007 -1.49012e-008 24.6319 1.04904 1.87295 6.36381 2.6665 1.018 73.7116 -2.25365 -93.9592 6.36379 2.6665 -1.01806 -97.2342 5.40215 81.1191 0.165207 0.881838 -2.53898e-005 -152.25 -0.0185242 -179.995 4.30221 0.00850105 1.88717e-010 15.0149 -1.3617e-005 1.3829e-005 1.50253 -3.8147e-006 -3.06422e-014 11.687 -1.43647e-005 1.31676e-005 1.27954 -1.37165 2.10918 -133.188 -55.6942 -38.1924 1.27953 -1.37164 -2.1093 47.3066 -56.1861 140.966 7.94507 5.72205e-006 8.65974e-015 -1.23467e-007 2.10692e-012 -1.72823e-012 
4.56948 13.879 -0.202824 99.9982 -86.3163 -177.787 0 -9.09495e-013 0 -90.9235 2.55462 -92.2772 -1.24088 -0.718306 2.5183e-006 -16.3875 -3.71837 176.608 6.82381 -1.7053e-013 2.86102e-006 -28.5022 2.51711 12.0341 8.76082 5.24521e-006 2.38419e-006 -53.0926 10.7958 -0.0363631 7.66998 5.96046e-008 -3.9968e-015 -46.2383 1.25918 -28.134 1.33942 0.0444269 0.0595427 -4.23337 -0.520135 3.12554 -1.35462 -0.108749 -2.49335 -106.301 -12.0025 176.139 8.39601 4.76837e-007 -2.38419e-007 -112.442 -8.59086e-006 -5.3642e-006 9.35807 1.77636e-015 -1.55431e-015 104.818 5.14952e-006 1.63817e-005 4.27819 2.38419e-007 -4.44089e-016 -27.4597 -0.543472 -0.738279 1.32445 2.68719 -2.36221e-007 95.1964 0.17897 -3.34746 0.282265 -2.40104e-010 2.10942e-015 -4.68443e-009 1.6275e-008 1.00021e-006 -1.31697 -0.11727 2.39445 -102.15 9.08303 -165.888 8.39601 0 -2.38419e-007 -114.073 9.54975e-006 1.60065e-005 9.35807 -6.21725e-015 -1.77636e-015 90.993 -1.90831e-005 -1.19813e-005 4.27819 4.32987e-015 -2.38419e-007 -14.5623 11.2186 -4.94781 1.32445 2.68719 -2.54337e-007 101.87 0.296796 2.22626 0.282265 3.9413e-015 4.44089e-016 -180 -1.99756e-006 -1.02374e-005 4.7801 -0.00552654 1.26809e-005 23.4118 2.11335 1.48476 7.53427 -0.00374699 8.63597e-005 12.7104 -1.67995 4.82647 8.17902 0.438046 -1.77579e-005 -51.3094 0.104064 -0.0161978 -0.248727 -4.58593 -2.17214 -128.93 -64.8015 119.305 6.62478 1.77636e-015 -7.10543e-015 35.7964 -11.1971 -102.539 7.46098 -4.76837e-007 -1.19209e-007 -125.539 -1.58963e-006 -4.3747e-006 7.80543 3.55271e-015 4.44089e-016 -1.71582 -11.7676 12.8159 2.2294 0.674378 0.135621 -61.4703 -7.75157 6.39621 3.57154 -1.19209e-007 1.19209e-007 -180 -1.01373e-005 -9.1076e-006 -0.247405 -4.56107 2.22406 -128.391 75.1913 -154.386 6.62478 1.77636e-015 -1.90735e-006 107.582 -61.3725 117.78 7.46098 1.06581e-014 0 -68.5785 -2.80056e-006 1.14661e-005 7.80543 -8.88179e-016 1.19209e-007 5.17733 4.15622 -0.533395 2.2294 0.674378 -0.135621 -15.6296 2.54302 1.35976 3.57153 -1.50991e-014 -5.96047e-008 -2.72147e-008 1.00268e-005 2.29347e-006 3.78078 -0.00284988 7.5996e-006 3.41119 1.06742 -0.186316 3.62738 -7.15256e-007 -1.49012e-008 26.7397 1.12097 1.01838 6.36381 2.6665 1.018 74.2463 -1.80964 -93.0523 6.3638 2.6665 -1.01806 -97.3572 5.75739 81.4889 0.165207 0.881838 -2.53861e-005 -152.266 -0.00239563 -179.999 4.30221 0.00850105 2.08587e-010 15.0149 -1.37262e-005 1.37943e-005 1.50253 -3.8147e-006 -4.24105e-014 11.687 -1.43739e-005 1.31193e-005 1.27954 -1.37165 2.10918 -132.893 -55.7669 -38.2839 1.27953 -1.37164 -2.1093 45.8101 -56.3476 139.419 7.94507 5.72205e-006 3.01981e-014 -1.23467e-007 2.10712e-012 -1.72863e-012 
3.88241 13.319 -0.191789 101.049 -85.537 -178.672 0 -9.09495e-013 -8.88178e-016 -90.7829 5.82038 -92.176 -1.24088 -0.718306 2.5183e-006 -14.0693 -3.27409 176.154 6.82381 -1.63425e-013 2.86102e-006 -27.9575 2.25331 11.0894 8.76082 5.24521e-006 2.38419e-006 -53.579 10.9936 -0.743427 7.66998 5.96047e-008 -3.9968e-015 -46.9854 0.857645 -28.2144 1.33942 0.0444269 0.0595427 -1.63193 -0.870659 3.06339 -1.35462 -0.108749 -2.49335 -105.312 -11.4914 174.406 8.39601 4.76837e-007 -2.38419e-007 -120.917 -2.65252e-006 -3.75063e-006 9.35807 8.88178e-016 -4.44089e-016 107.525 7.70178e-006 1.60458e-005 4.27819 2.38419e-007 2.22045e-016 -40.4878 -2.82972 -0.234784 1.32446 2.68719 -2.2517e-007 112.408 0.515513 -2.5342 0.282265 -2.40106e-010 2.44249e-015 -4.68444e-009 1.6275e-008 1.00021e-006 -1.31697 -0.11727 2.39445 -102.685 8.69752 -163.381 8.39601 -1.77636e-015 -2.38419e-007 -117.873 -1.65758e-005 3.99175e-006 9.35807 -7.10543e-015 -1.33227e-015 89.2388 8.19106e-006 -1.30452e-005 4.27819 5.55112e-016 -2.38419e-007 -5.30479 14.4989 -6.81171 1.32445 2.68719 -2.44112e-007 95.5808 0.283067 1.14748 0.282265 6.17562e-015 4.44089e-016 -180 -1.99756e-006 -1.02375e-005 4.7801 -0.00552654 1.26809e-005 21.5452 2.27997 1.8806 7.53427 -0.00374699 8.63597e-005 18.8899 -1.26996 6.18996 8.17902 0.438046 -1.77553e-005 -54.9703 0.111075 -0.00797315 -0.248727 -4.58593 -2.17214 -125.278 -64.7967 117.568 6.62478 -3.55271e-015 -7.10543e-015 36.8315 -13.2882 -100.133 7.46098 -4.76837e-007 -1.19209e-007 -115.14 -5.23476e-006 -2.48561e-006 7.80543 -3.55272e-015 -5.10703e-015 -8.78474 -10.0654 12.6124 2.2294 0.674378 0.135621 -68.9507 -8.51316 5.33631 3.57154 -1.19209e-007 1.19209e-007 -180 -1.01373e-005 -9.1076e-006 -0.247405 -4.56107 2.22406 -124.714 75.2123 -156.525 6.62478 5.32907e-015 -1.90735e-006 116.916 -64.7106 124.395 7.46098 1.06581e-014 -8.88179e-016 -60.262 -2.27508e-007 1.11703e-005 7.80543 7.10543e-015 1.19209e-007 2.13211 3.62903 0.231095 2.2294 0.674378 -0.135621 -14.9267 2.38568 1.20506 3.57153 -1.06582e-014 -5.96047e-008 -2.72147e-008 1.00268e-005 2.29347e-006 3.78078 -0.00284988 7.59961e-006 6.66273 1.68726 -0.0376558 3.62738 -7.15256e-007 -1.49012e-008 28.0585 1.01547 -0.123968 6.36381 2.6665 1.018 74.8508 -1.43342 -92.311 6.3638 2.6665 -1.01806 -97.4731 6.02505 81.7933 0.165207 0.881838 -2.53834e-005 -152.282 -0.0091095 -179.998 4.30221 0.00850105 2.0351e-010 15.0149 -1.38603e-005 1.38032e-005 1.50253 -3.8147e-006 -4.81837e-014 11.687 -1.44487e-005 1.30988e-005 1.27954 -1.37165 2.10918 -132.22 -55.9279 -38.4869 1.27953 -1.37164 -2.1093 43.9565 -56.5525 137.519 7.94507 5.72205e-006 4.77396e-014 -1.23467e-007 2.10732e-012 -1.73062e-012 
